<?xml version="1.0" encoding="utf-8"?>
<!-- Generator: Adobe Illustrator 21.1.0, SVG Export Plug-In . SVG Version: 6.00 Build 0)  -->
<!DOCTYPE svg PUBLIC "-//W3C//DTD SVG 1.1//EN" "http://www.w3.org/Graphics/SVG/1.1/DTD/svg11.dtd">
<svg version="1.1" id="Layer_1_copy" xmlns="http://www.w3.org/2000/svg" xmlns:xlink="http://www.w3.org/1999/xlink" x="0px"
	 y="0px" width="351.8px" height="161.3px" viewBox="0 0 351.8 161.3" style="enable-background:new 0 0 351.8 161.3;"
	 xml:space="preserve">
<g>
	<defs>
		<path id="SVGID_1_" d="M305.8,67.8h-23.3c-10.6,0-17.5-7.6-17.5-16.8c0-9.2,6.3-16.7,19.6-16.7c0.6,0,46.5,0,56.7,0h0.1
			c1.1,0,1.9-0.9,1.9-2V2c0-1.1-0.9-2-2-2h0h-59c-29.6,0-50.2,24.8-50.2,51c0,22.2,17.4,44,47.5,44c0.4,0,22,0,22,0
			c11.4,0,17.7,8.1,17.7,16.6c0,9.2-7.3,16.7-17.4,16.7c-1,0-48.4,0-58.9,0h-0.2c-1,0-1.8,0.8-1.9,1.9v29.2c0.1,1,0.9,1.8,1.9,1.9h0
			c10.3,0,57.5,0,57.7,0c32.2,0,51.5-24.2,51.5-49.6C352.2,90.2,335,67.8,305.8,67.8 M150.6,0C150.2,0,46.5,0,46.5,0
			C13.9,0,1,22.8,1,45.3l0,113.8v0.2c0.1,1,0.9,1.8,1.9,1.9h30.9c1.1,0,1.9-0.9,1.9-2v0c0-15.4,0-115,0-115.1
			c0-5.4,4.1-9.8,10.9-9.8c0.2,0,46.8,0,46.8,0c-5.4,7.5-7.3,18.4-7.3,22.8v46.3c0,33.8,20.9,57.8,59.2,57.8c0.2,0,40.9,0,50.6,0
			h0.1c1.1,0,1.9-0.9,1.9-2l0-28.9v-0.1c0-1-0.9-1.9-1.9-1.9h-0.1c-8.7,0-41.7,0-41.8,0c-34.5,0-33.3-22.1-33.3-35.3V67.8
			c0-7,3-33.9,30.1-33.9c31.2,0,30.3,23.7,30.3,34h-36c-1,0-1.8,0.8-1.9,1.8v23.5c0.1,1,0.9,1.8,1.8,1.8h68.4c1-0.1,1.8-0.9,1.8-1.9
			V59.5C215.4,31.3,197.9,0,150.6,0"/>
	</defs>
	<use xlink:href="#SVGID_1_"  style="overflow:visible;fill:#ED6B06;"/>
	<clipPath id="SVGID_2_">
		<use xlink:href="#SVGID_1_"  style="overflow:visible;"/>
	</clipPath>
</g>
</svg>
